# xmcd
#
# Track frame offsets: 
#        150
#        6130
#        29852
#        41917
#        73905
#        88862
#        103932
#        120095
#        135535
#        157252
#        181472
#        201072
#        216750
#        240402
#        262757
#        288665
#        307540
#
# Disc length: 4311 seconds
#
# Revision: 3
# Processed by: cddbd v1.5.2PL0 Copyright (c) Steve Scherf et al.
# Submitted via: ExactAudioCopyFreeDBPlugin 1.0
#
DISCID=f310d511
DTITLE=Bobby Womack - Back to My Roots
DYEAR=1999
DGENRE=Gospel
TTITLE0=Opening Narration
TTITLE1=Rug
TTITLE2=Stand By Me
TTITLE3=Oh Happy Day
TTITLE4=Jesus Be a Fence Around Me
TTITLE5=What a Friend We Have in Jesus
TTITLE6=Where There's a Will There's a Way
TTITLE7=I'm Coming Home
TTITLE8=It is Well
TTITLE9=Motherless Child
TTITLE10=Bridge Over Troubled Water
TTITLE11=Looking Back
TTITLE12=Ease My Troubled Mind
TTITLE13=Nearer My God to Thee
TTITLE14=Cousin Henry
TTITLE15=A Hundred Pounds of Clay
TTITLE16=Amen - This Little Light of Mine - Closing Narration
EXTD=
EXTT0=
EXTT1=
EXTT2=
EXTT3=
EXTT4=
EXTT5=
EXTT6=
EXTT7=
EXTT8=
EXTT9=
EXTT10=
EXTT11=
EXTT12=
EXTT13=
EXTT14=
EXTT15=
EXTT16=
PLAYORDER=
